<svg xmlns="http://www.w3.org/2000/svg" xmlns:svg="http://www.w3.org/2000/svg" id="svg2" width="210mm" height="297mm" version="1.1" viewBox="0 0 210 297"><metadata id="metadata7"/><g id="layer1"><path style="fill:#586270;stroke-width:.34946224" id="path4143" d="m 58.081705,66.818284 c 0.512696,-0.512697 -0.09441,-1.920338 0.641119,-1.920338 l 0.931395,0 90.948111,0 1.82153,0 c 0.52726,0 0.0272,1.106415 0.49589,1.575156 0.70587,0.70587 1.8628,0.364921 1.8628,0.364921 l 0,55.769997 -98.618431,0 0,-55.479604 c 0,0 1.327935,0.279511 1.917586,-0.310132 z"/><path style="fill:#d8625e;stroke-width:.16201057" id="path4181" d="m 164.007,122.89442 -8.29482,0 c -0.76385,0 -1.38279,-0.61894 -1.38279,-1.38217 l 0,-55.299391 c 0,-0.76385 0.61894,-1.382785 1.38279,-1.382785 l 8.29482,0 c 2.56685,0 5.02801,1.019527 6.84304,2.834557 1.81502,1.815023 2.83455,4.276191 2.83455,6.843045 l 0,38.709764 c 0,5.34446 -4.33314,9.67698 -9.67759,9.67698 z m 0,0"/><path style="fill:#f9c300;fill-opacity:1;stroke-width:.16201057" id="path4452" d="m 163.77997,91.905562 c -3.44687,0.0091 -5.7359,4.309804 -3.81572,7.173943 1.64333,2.999565 6.4595,2.991945 8.09291,-0.01301 1.90776,-2.864791 -0.38265,-7.151426 -3.82308,-7.160921 -0.15129,-0.0068 -0.30282,-0.0068 -0.45411,0 z"/><path style="fill:#36b6d6;stroke-width:.16201057" id="path4183" d="m 47.04716,64.830074 8.294822,0 c 0.76385,0 1.382778,0.618935 1.382778,1.382785 l 0,55.299391 c 0,0.76323 -0.618928,1.38217 -1.382778,1.38217 l -8.294822,0 c -2.566848,0 -5.028017,-1.01953 -6.843044,-2.83393 -1.81502,-1.81502 -2.834548,-4.27682 -2.834548,-6.84305 l 0,-38.709764 c 0,-5.345083 4.333143,-9.677602 9.677592,-9.677602 z m 0,0"/><path id="path4929" d="m 43.459179,93.977261 c -2.277817,-0.01951 -3.429078,3.177739 -1.661837,4.614649 1.605284,1.62674 4.687769,0.15822 4.432895,-2.114244 -0.05313,-1.418989 -1.352775,-2.592147 -2.771058,-2.500405 z" style="fill:#f9c300;fill-opacity:1;stroke-width:.16201057"/><path style="fill:#f9c300;fill-opacity:1;stroke-width:.16201057" id="path4342" d="m 46.818702,75.315473 c -3.446531,0.0099 -5.7338,4.310491 -3.814022,7.173942 1.64179,2.999711 6.459156,2.993072 8.091771,-0.01189 1.908654,-2.863991 -0.380262,-7.151922 -3.820817,-7.16205 -0.152214,-0.0076 -0.304727,-0.0076 -0.456932,0 z"/><path style="fill:#3a3e48;stroke-width:.16201057" id="path4187" d="m 51.194886,80.037552 c 0,2.290297 -1.85743,4.147728 -4.147726,4.147728 -2.290296,0 -4.147719,-1.857431 -4.147719,-4.147728 0,-2.290931 1.857423,-4.147722 4.147719,-4.147722 2.290296,0 4.147726,1.856791 4.147726,4.147722 z m 0,0"/><path style="fill:#3a3e48;stroke-width:.16201057" id="path4189" d="m 168.15472,96.627184 c 0,2.290932 -1.85743,4.147726 -4.14772,4.147726 -2.29031,0 -4.14773,-1.856794 -4.14773,-4.147726 0,-2.290301 1.85742,-4.147094 4.14773,-4.147094 2.29029,0 4.14772,1.856793 4.14772,4.147094 z m 0,0"/><path style="fill:#3a3e48;stroke-width:.16201057" id="path4191" d="m 165.38978,111.83466 c 0,1.52707 -1.2385,2.76494 -2.76558,2.76494 -1.52707,0 -2.76493,-1.23787 -2.76493,-2.76494 0,-1.52707 1.23786,-2.76494 2.76493,-2.76494 1.52708,0 2.76558,1.23787 2.76558,2.76494 z m 0,0"/><path style="fill:#3a3e48;stroke-width:.1256903" id="path4193" d="m 51.658156,71.736508 -2.145082,0 c -0.592615,0 -1.072794,-0.480176 -1.072794,-1.072786 0,-0.592117 0.480179,-1.072293 1.072794,-1.072293 l 2.145082,0 c 0.59211,0 1.072289,0.480176 1.072289,1.072293 0,0.59261 -0.480179,1.072786 -1.072289,1.072786 z m 0,0"/><path id="path4931" d="m 46.915351,90.521088 c -2.277777,-0.01849 -3.427966,3.176995 -1.661837,4.614647 1.605505,1.626905 4.687178,0.158188 4.432895,-2.114242 -0.05368,-1.419369 -1.352483,-2.591214 -2.771058,-2.500405 z" style="fill:#f9c300;fill-opacity:1;stroke-width:.16201057"/><path style="fill:#909090;stroke-width:.16201057;fill-opacity:1" id="path4197" d="m 49.121027,93.171167 c 0,1.145466 -0.9284,2.073863 -2.073867,2.073863 -1.145459,0 -2.073859,-0.928397 -2.073859,-2.073863 0,-1.145463 0.9284,-2.07386 2.073859,-2.07386 1.145467,0 2.073867,0.928397 2.073867,2.07386 z m 0,0"/><path style="fill:#f9c300;fill-opacity:1;stroke-width:.16201057" id="path4398" d="m 46.925146,97.432951 c -2.277817,-0.01951 -3.429078,3.177739 -1.661837,4.614649 1.605284,1.62674 4.687769,0.15822 4.432895,-2.114244 -0.05313,-1.418989 -1.352775,-2.592147 -2.771058,-2.500405 z"/><path style="fill:#3a3e48;stroke-width:.16201057" id="path4199" d="m 49.121027,100.08383 c 0,1.14483 -0.9284,2.07323 -2.073867,2.07323 -1.145459,0 -2.073859,-0.9284 -2.073859,-2.07323 0,-1.145464 0.9284,-2.073861 2.073859,-2.073861 1.145467,0 2.073867,0.928397 2.073867,2.073861 z m 0,0"/><path style="fill:#f9c300;fill-opacity:1;stroke-width:.16201057" id="path4372" d="m 50.381318,93.976778 c -2.277777,-0.01849 -3.427966,3.176995 -1.661837,4.614647 1.605505,1.626905 4.687178,0.158188 4.432895,-2.114242 -0.05368,-1.419369 -1.352483,-2.591214 -2.771058,-2.500405 z"/><path style="fill:#3a3e48;stroke-width:.16201057" id="path4201" d="m 52.577033,96.627184 c 0,1.145463 -0.928392,2.07386 -2.073859,2.07386 -1.144828,0 -2.073221,-0.928397 -2.073221,-2.07386 0,-1.144838 0.928393,-2.073231 2.073221,-2.073231 1.145467,0 2.073859,0.928393 2.073859,2.073231 z m 0,0"/><path style="fill:#909090;stroke-width:.16201057;fill-opacity:1" id="path4203" d="m 45.664374,96.627184 c 0,1.145463 -0.928392,2.07386 -2.073221,2.07386 -1.145467,0 -2.073867,-0.928397 -2.073867,-2.07386 0,-1.144838 0.9284,-2.073231 2.073867,-2.073231 1.144829,0 2.073221,0.928393 2.073221,2.073231 z m 0,0"/><path style="fill:#3a3e48;fill-opacity:1;stroke-width:.16201057" id="path4205" d="m 166.08085,76.581537 c 0,1.144836 -0.92839,2.073231 -2.07385,2.073231 -1.14547,0 -2.07387,-0.928395 -2.07387,-2.073231 0,-1.145467 0.9284,-2.073861 2.07387,-2.073861 1.14546,0 2.07385,0.928394 2.07385,2.073861 z m 0,0"/><path style="fill:#f9c300;fill-opacity:1;stroke-width:.16201057" id="path4434" d="m 163.88472,80.842861 c -2.27762,-0.01879 -3.42787,3.176006 -1.66297,4.61465 1.60635,1.627021 4.68856,0.159235 4.43459,-2.114245 -0.0546,-1.419233 -1.35231,-2.592153 -2.77162,-2.500405 z"/><path style="fill:#3a3e48;stroke-width:.16201057" id="path4207" d="m 166.08085,83.493568 c 0,1.145464 -0.92839,2.07386 -2.07385,2.07386 -1.14547,0 -2.07387,-0.928396 -2.07387,-2.07386 0,-1.144831 0.9284,-2.07386 2.07387,-2.07386 1.14546,0 2.07385,0.929029 2.07385,2.07386 z m 0,0"/><path style="fill:#f9c300;fill-opacity:1;stroke-width:.16201057" id="path4430" d="m 167.3409,77.386686 c -2.2778,-0.01893 -3.42784,3.178203 -1.66127,4.615218 1.60677,1.628054 4.68924,0.155822 4.43288,-2.117644 -0.0566,-1.418076 -1.35316,-2.589256 -2.77161,-2.497574 z"/><path style="fill:#3a3e48;stroke-width:.16201057" id="path4209" d="m 169.53687,80.037552 c 0,1.145466 -0.9284,2.073862 -2.07387,2.073862 -1.14482,0 -2.07322,-0.928396 -2.07322,-2.073862 0,-1.145465 0.9284,-2.073861 2.07322,-2.073861 1.14547,0 2.07387,0.928396 2.07387,2.073861 z m 0,0"/><path style="fill:#3a3e48;stroke-width:.16201057" id="path4211" d="m 162.6242,80.037552 c 0,1.145466 -0.92839,2.073862 -2.07322,2.073862 -1.14547,0 -2.07386,-0.928396 -2.07386,-2.073862 0,-1.145465 0.92839,-2.073861 2.07386,-2.073861 1.14483,0 2.07322,0.928396 2.07322,2.073861 z m 0,0"/><path style="fill:#3a3e48;stroke-width:.16201057" id="path4213" d="m 47.04716,109.06972 2.764941,0 c 0.763857,0 1.382785,0.61893 1.382785,1.38279 l 0,2.76493 c 0,0.76322 -0.618928,1.38216 -1.382785,1.38216 l -2.764941,0 c -0.763219,0 -1.382786,-0.61894 -1.382786,-1.38216 l 0,-2.76493 c 0,-0.76386 0.619567,-1.38279 1.382786,-1.38279 z m 0,0"/><rect style="opacity:1;fill:#3a3e48;fill-opacity:1;stroke:none;stroke-width:.80991048;stroke-linejoin:round;stroke-miterlimit:4;stroke-dasharray:none;stroke-opacity:1" id="rect4319" width="91.472" height="53.141" x="59.815" y="67.263" ry="2.388"/><rect id="rect4321" width="74.661" height="43.438" x="68.221" y="72.115" ry="0" style="opacity:1;fill:#687082;fill-opacity:1;stroke:none;stroke-width:.66154492;stroke-linejoin:round;stroke-miterlimit:4;stroke-dasharray:none;stroke-opacity:1"/><g id="g4376" transform="matrix(0.28990192,0,0,0.28990192,96.471762,54.860431)"><path id="path4346" d="m -182.63434,77.50751 -13.54149,-11.695653 -109.58051,0" style="fill:none;fill-rule:evenodd;stroke:#f9c300;stroke-width:2;stroke-linecap:round;stroke-linejoin:miter;stroke-miterlimit:4;stroke-dasharray:none;stroke-opacity:1"/><rect id="rect4348" width="88.42" height="20.088" x="-305.756" y="65.812" style="opacity:1;fill:#f9c300;fill-opacity:1;stroke:#f9c300;stroke-width:2;stroke-linecap:round;stroke-linejoin:round;stroke-miterlimit:4;stroke-dasharray:none;stroke-opacity:1"/><text xml:space="preserve" style="font-style:normal;font-variant:normal;font-weight:700;font-stretch:normal;font-size:6.61286831px;line-height:125%;font-family:'SF Pro Display';-inkscape-font-specification:'SF Pro Display Bold';letter-spacing:0;word-spacing:0;fill:#4a4a4a;fill-opacity:1;stroke:none;stroke-width:.16532169px;stroke-linecap:butt;stroke-linejoin:miter;stroke-opacity:1" id="text4368" x="-303.231" y="79.231"><tspan x="-303.231" y="79.231" style="font-style:normal;font-variant:normal;font-weight:700;font-stretch:normal;font-size:9.73509312px;font-family:'SF Pro Display';-inkscape-font-specification:'SF Pro Display Bold';fill:#4a4a4a;fill-opacity:1;stroke-width:.16532169px" id="tspan4370">Movement</tspan></text><flowRoot id="flowRoot4558" xml:space="preserve" style="fill:#000;stroke:none;stroke-opacity:1;stroke-width:1px;stroke-linejoin:miter;stroke-linecap:butt;fill-opacity:1;font-family:sans-serif;font-style:normal;font-weight:400;font-size:40px;line-height:125%;letter-spacing:0;word-spacing:0"><flowRegion id="flowRegion4560"><rect id="rect4562" width="47.5" height="45.714" x="-11.071" y="238.234"/></flowRegion><flowPara id="flowPara4564"/></flowRoot></g><g id="g4384" transform="matrix(0.28990192,0,0,0.28990192,96.471762,66.366499)"><path style="fill:none;fill-rule:evenodd;stroke:#f9c300;stroke-width:2;stroke-linecap:round;stroke-linejoin:miter;stroke-miterlimit:4;stroke-dasharray:none;stroke-opacity:1" id="path4386" d="m -175.68544,86.255 -20.49039,-20.443143 -109.58051,0"/><rect style="opacity:1;fill:#f9c300;fill-opacity:1;stroke:#f9c300;stroke-width:2;stroke-linecap:round;stroke-linejoin:round;stroke-miterlimit:4;stroke-dasharray:none;stroke-opacity:1" id="rect4388" width="88.42" height="20.088" x="-305.756" y="65.812"/><text id="text4394" x="-303.324" y="79.288" style="font-style:normal;font-variant:normal;font-weight:700;font-stretch:normal;font-size:6.61286831px;line-height:125%;font-family:'SF Pro Display';-inkscape-font-specification:'SF Pro Display Bold';letter-spacing:0;word-spacing:0;fill:#4a4a4a;fill-opacity:1;stroke:none;stroke-width:.16532169px;stroke-linecap:butt;stroke-linejoin:miter;stroke-opacity:1" xml:space="preserve"><tspan id="tspan4396" style="font-style:normal;font-variant:normal;font-weight:700;font-stretch:normal;font-size:9.73509312px;font-family:'SF Pro Display';-inkscape-font-specification:'SF Pro Display Bold';fill:#4a4a4a;fill-opacity:1;stroke-width:.16532169px" x="-303.324" y="79.288" dx="0 0 0 0 0 0">Save &amp; Load</tspan></text></g><g id="g4402" transform="matrix(0.28990192,0,0,0.28990192,96.282774,87.861359)"><path id="path4404" d="m -175.98871,48.934622 -20.18712,16.877235 -109.58051,0" style="fill:none;fill-rule:evenodd;stroke:#f9c300;stroke-width:2;stroke-linecap:round;stroke-linejoin:miter;stroke-miterlimit:4;stroke-dasharray:none;stroke-opacity:1"/><rect id="rect4406" width="88.42" height="20.088" x="-305.756" y="65.812" style="opacity:1;fill:#f9c300;fill-opacity:1;stroke:#f9c300;stroke-width:2;stroke-linecap:round;stroke-linejoin:round;stroke-miterlimit:4;stroke-dasharray:none;stroke-opacity:1"/><text xml:space="preserve" style="font-style:normal;font-variant:normal;font-weight:700;font-stretch:normal;font-size:6.61286831px;line-height:125%;font-family:'SF Pro Display';-inkscape-font-specification:'SF Pro Display Bold';letter-spacing:0;word-spacing:0;fill:#4a4a4a;fill-opacity:1;stroke:none;stroke-width:.16532169px;stroke-linecap:butt;stroke-linejoin:miter;stroke-opacity:1" id="text4412" x="-303.887" y="79.288"><tspan x="-303.887" y="79.288" style="font-style:normal;font-variant:normal;font-weight:700;font-stretch:normal;font-size:9.73509312px;font-family:'SF Pro Display';-inkscape-font-specification:'SF Pro Display Bold';fill:#4a4a4a;fill-opacity:1;stroke-width:.16532169px" id="tspan4414">Start &amp; Select</tspan></text></g><g id="g4416" transform="matrix(-0.28990192,0,0,0.28990192,120.0383,53.581977)"><path style="fill:none;fill-rule:evenodd;stroke:#f9c300;stroke-width:2;stroke-linecap:round;stroke-linejoin:miter;stroke-miterlimit:4;stroke-dasharray:none;stroke-opacity:1" id="path4418" d="m -171.27539,84.857422 -24.90044,-19.045565 -109.58051,0"/><rect style="opacity:1;fill:#f9c300;fill-opacity:1;stroke:#f9c300;stroke-width:2;stroke-linecap:round;stroke-linejoin:round;stroke-miterlimit:4;stroke-dasharray:none;stroke-opacity:1" id="rect4420" width="88.42" height="20.088" x="-305.756" y="65.812"/><text id="text4426" x="220.942" y="79.166" style="font-style:normal;font-variant:normal;font-weight:700;font-stretch:normal;font-size:9.73509312px;line-height:125%;font-family:'SF Pro Display';-inkscape-font-specification:'SF Pro Display Bold';letter-spacing:0;word-spacing:0;fill:#4a4a4a;fill-opacity:1;stroke:none;stroke-width:.16532169px;stroke-linecap:butt;stroke-linejoin:miter;stroke-opacity:1" transform="scale(-1,1)" xml:space="preserve"><tspan id="tspan4428" style="font-style:normal;font-variant:normal;font-weight:700;font-stretch:normal;font-size:9.73509312px;font-family:'SF Pro Display';-inkscape-font-specification:'SF Pro Display Bold';fill:#4a4a4a;fill-opacity:1;stroke-width:.16532169px" x="220.942" y="79.166">A and B</tspan></text></g><g id="g4456" transform="matrix(-0.28990192,0,0,0.28990192,120.0383,67.936434)"><path id="path4458" d="m -165.03878,90.527065 -31.13705,-24.715208 -109.58051,0" style="fill:none;fill-rule:evenodd;stroke:#f9c300;stroke-width:2;stroke-linecap:round;stroke-linejoin:miter;stroke-miterlimit:4;stroke-dasharray:none;stroke-opacity:1"/><rect id="rect4460" width="88.309" height="29.259" x="-305.701" y="65.867" style="opacity:1;fill:#f9c300;fill-opacity:1;stroke:#f9c300;stroke-width:2.41221929;stroke-linecap:round;stroke-linejoin:round;stroke-miterlimit:4;stroke-dasharray:none;stroke-opacity:1"/></g><text id="text4350-4" x="183.976" y="90.384" style="font-style:normal;font-variant:normal;font-weight:700;font-stretch:normal;font-size:2.82222223px;line-height:125%;font-family:'SF Pro Display';-inkscape-font-specification:'SF Pro Display Bold';letter-spacing:0;word-spacing:0;fill:#4a4a4a;fill-opacity:1;stroke:none;stroke-width:.04792708px;stroke-linecap:butt;stroke-linejoin:miter;stroke-opacity:1" xml:space="preserve"><tspan id="tspan4354-3" style="font-style:normal;font-variant:normal;font-weight:700;font-stretch:normal;font-size:2.82222223px;font-family:'SF Pro Display';-inkscape-font-specification:'SF Pro Display Bold';fill:#4a4a4a;fill-opacity:1;stroke-width:.04792708px" x="183.976" y="90.384">Up / Down: Setting</tspan><tspan style="font-style:normal;font-variant:normal;font-weight:700;font-stretch:normal;font-size:2.82222223px;font-family:'SF Pro Display';-inkscape-font-specification:'SF Pro Display Bold';fill:#4a4a4a;fill-opacity:1;stroke-width:.04792708px" id="tspan4568" x="183.976" y="93.912">Left / Right: Value</tspan></text><g id="g4492" transform="matrix(0.17616689,0,0,0.17616689,120.34854,58.42237)"><path id="path4195" d="m 228.18903,72.533474 -9.53748,0 c -2.6327,0 -4.76766,-2.134965 -4.76766,-4.769834 0,-2.632683 2.13496,-4.767647 4.76766,-4.767647 l 9.53748,0 c 2.63488,0 4.76985,2.134964 4.76985,4.767647 0,2.634869 -2.13497,4.769834 -4.76985,4.769834 z m 0,0" style="fill:#3a3e48;stroke-width:.55884612"/><path style="fill:#3a3e48;stroke-width:.55884612" id="path4490" d="m 218.65264,72.532379 0,-9.53748 c 0,-2.6327 2.13497,-4.76766 4.76984,-4.76766 2.63268,0 4.76765,2.13496 4.76765,4.76766 l 0,9.53748 c 0,2.63488 -2.13497,4.76985 -4.76765,4.76985 -2.63487,0 -4.76984,-2.13497 -4.76984,-4.76985 z m 0,0"/></g><g id="g4518" transform="matrix(0.28990192,0,0,0.28990192,96.471762,50.715148)"><path id="path4496" d="m -644.36133,174.01953 c -51.81581,0 -99.0663,27.41372 -120.69922,79.83594 -4.78233,11.58882 -3.11685,16.13443 -0.89062,22.55859 14.76905,-53.28134 63.61149,-92.39453 121.58984,-92.39453 l 106.99024,0 c -2.96994,-5.92173 -8.95211,-10 -16.02149,-10 z" transform="scale(0.26458333)" style="fill:#3a3e48;fill-opacity:1;stroke-width:2.11217427"/><path id="path4505" d="m -558.34375,165.42969 c -1.62939,0.0146 -3.27796,0.14904 -4.9375,0.41015 -26.28038,-0.0757 -52.56139,-0.6518 -78.83984,-0.10937 -40.66141,0.52566 -81.99427,16.09569 -107.7793,48.49414 -13.57073,15.7272 -25.69022,35.79597 -25.5,57.03125 3.10507,9.1254 8.84605,17.39896 10.58203,13.55993 22.23358,-49.1684 46.02088,-83.21903 99.12891,-90.17907 46.72781,-5.02015 93.80013,-2.07219 140.69726,-2.62695 -3.69065,-15.68349 -17.60078,-26.72127 -33.35156,-26.58008 z m -86.01758,8.58984 90.96875,0 c 7.06938,0 13.05155,4.07827 16.02149,10 l -106.99024,0 c -57.97835,0 -106.82079,39.11319 -121.58984,92.39453 -2.22623,-6.42416 -3.89171,-10.96977 0.89062,-22.55859 21.63292,-52.42222 68.88341,-79.83594 120.69922,-79.83594 z" transform="scale(0.26458333)" style="fill:#f9c300;fill-opacity:1;stroke-width:2.11217427"/></g><g id="g4522" transform="matrix(-0.28990192,0,0,0.28990192,114.63111,50.715148)"><path style="fill:#3a3e48;fill-opacity:1;stroke-width:2.11217427" id="path4524" d="m -644.36133,174.01953 c -51.81581,0 -99.0663,27.41372 -120.69922,79.83594 -4.78233,11.58882 -3.11685,16.13443 -0.89062,22.55859 14.76905,-53.28134 63.61149,-92.39453 121.58984,-92.39453 l 106.99024,0 c -2.96994,-5.92173 -8.95211,-10 -16.02149,-10 z" transform="scale(0.26458333)"/><path style="fill:#f9c300;fill-opacity:1;stroke-width:2.11217427" id="path4526" d="m -558.34375,165.42969 c -1.62939,0.0146 -3.27796,0.14904 -4.9375,0.41015 -26.28038,-0.0757 -52.56139,-0.6518 -78.83984,-0.10937 -40.66141,0.52566 -81.99427,16.09569 -107.7793,48.49414 -13.57073,15.7272 -25.69022,35.79597 -25.5,57.03125 3.10507,9.1254 8.84605,17.39896 10.58203,13.55993 22.23358,-49.1684 46.02088,-83.21903 99.12891,-90.17907 46.72781,-5.02015 93.80013,-2.07219 140.69726,-2.62695 -3.69065,-15.68349 -17.60078,-26.72127 -33.35156,-26.58008 z m -86.01758,8.58984 90.96875,0 c 7.06938,0 13.05155,4.07827 16.02149,10 l -106.99024,0 c -57.97835,0 -106.82079,39.11319 -121.58984,92.39453 -2.22623,-6.42416 -3.89171,-10.96977 0.89062,-22.55859 21.63292,-52.42222 68.88341,-79.83594 120.69922,-79.83594 z" transform="scale(0.26458333)"/></g><g id="g4528" transform="matrix(0.28990192,0,0,0.28990192,96.471762,41.378568)"><path style="fill:none;fill-rule:evenodd;stroke:#f9c300;stroke-width:2;stroke-linecap:round;stroke-linejoin:miter;stroke-miterlimit:4;stroke-dasharray:none;stroke-opacity:1" id="path4530" d="m -182.63434,77.50751 -13.54149,-11.695653 -109.58051,0"/><rect style="opacity:1;fill:#f9c300;fill-opacity:1;stroke:#f9c300;stroke-width:2;stroke-linecap:round;stroke-linejoin:round;stroke-miterlimit:4;stroke-dasharray:none;stroke-opacity:1" id="rect4532" width="88.42" height="20.088" x="-305.756" y="65.812"/><text id="text4538" x="-302.775" y="79.286" style="font-style:normal;font-variant:normal;font-weight:700;font-stretch:normal;font-size:9.73509312px;line-height:125%;font-family:'SF Pro Display';-inkscape-font-specification:'SF Pro Display Bold';letter-spacing:0;word-spacing:0;fill:#4a4a4a;fill-opacity:1;stroke:none;stroke-width:.16532169px;stroke-linecap:butt;stroke-linejoin:miter;stroke-opacity:1" xml:space="preserve"><tspan id="tspan4540" style="font-style:normal;font-variant:normal;font-weight:700;font-stretch:normal;font-size:9.73509312px;font-family:'SF Pro Display';-inkscape-font-specification:'SF Pro Display Bold';fill:#4a4a4a;fill-opacity:1;stroke-width:.16532169px" x="-302.775" y="79.286">L Shoulder</tspan></text></g><g id="g4542" transform="matrix(-1,0,0,1,81.2914,-35.546847)"><path id="path4544" d="m -88.399968,100.55722 -7.218687,-5.521345 -31.767595,0" style="fill:none;fill-rule:evenodd;stroke:#f9c300;stroke-width:.57980388;stroke-linecap:round;stroke-linejoin:miter;stroke-miterlimit:4;stroke-dasharray:none;stroke-opacity:1"/><rect id="rect4546" width="25.508" height="8.639" x="-127.324" y="95.098" style="opacity:1;fill:#f9c300;fill-opacity:1;stroke:#f9c300;stroke-width:.70445836;stroke-linecap:round;stroke-linejoin:round;stroke-miterlimit:4;stroke-dasharray:none;stroke-opacity:1"/><text transform="scale(-1,1)" xml:space="preserve" style="font-style:normal;font-variant:normal;font-weight:700;font-stretch:normal;font-size:2.82222223px;line-height:125%;font-family:'SF Pro Display';-inkscape-font-specification:'SF Pro Display Bold';letter-spacing:0;word-spacing:0;fill:#4a4a4a;fill-opacity:1;stroke:none;stroke-width:.04792708px;stroke-linecap:butt;stroke-linejoin:miter;stroke-opacity:1" id="text4552" x="102.798" y="98.707"><tspan x="102.798" y="98.707" style="font-style:normal;font-variant:normal;font-weight:700;font-stretch:normal;font-size:2.82222223px;font-family:'SF Pro Display';-inkscape-font-specification:'SF Pro Display Bold';fill:#4a4a4a;fill-opacity:1;stroke-width:.04792708px" id="tspan4554">Front: R Shoulder</tspan><tspan x="102.798" y="102.234" style="font-style:normal;font-variant:normal;font-weight:700;font-stretch:normal;font-size:2.82222223px;font-family:'SF Pro Display';-inkscape-font-specification:'SF Pro Display Bold';fill:#4a4a4a;fill-opacity:1;stroke-width:.04792708px" id="tspan4556">Back: Turbo</tspan></text></g></g></svg>